<svg width="520" height="180" viewBox="0 0 520 180" fill="none" xmlns="http://www.w3.org/2000/svg">
  <rect width="520" height="180" rx="24" fill="white" fill-opacity="0"/>
  <g transform="translate(18 14)">
    <path d="M88 8L150 8C154.418 8 158 11.5817 158 16V28L88 58C83.5817 58 80 54.4183 80 50V16C80 11.5817 83.5817 8 88 8Z" fill="#1247D8"/>
    <path d="M88 66L150 40C154.418 40 158 43.5817 158 48V60C158 64.4183 154.418 68 150 68L88 94C83.5817 94 80 90.4183 80 86V74C80 69.5817 83.5817 66 88 66Z" fill="#FF2A1E"/>
    <path d="M84 106C84 102.686 86.6863 100 90 100H112L158 119V132C158 135.314 155.314 138 152 138H130L84 119V106Z" fill="#1247D8"/>
    <path d="M84 128C84 124.686 86.6863 122 90 122H132L158 134V146C158 149.314 155.314 152 152 152H110L84 140V128Z" fill="#1247D8"/>
    <path d="M84 150C84 146.686 86.6863 144 90 144H140L158 152V164C158 167.314 155.314 170 152 170H102L84 162V150Z" fill="#1247D8"/>
    <path d="M170 44C170 39.5817 173.582 36 178 36H190C202.15 36 212 45.8497 212 58V144C212 156.15 202.15 166 190 166H178C173.582 166 170 162.418 170 158V44Z" fill="#FF2A1E"/>
    <path d="M218 52C218 47.5817 221.582 44 226 44H236C247.046 44 256 52.9543 256 64V140C256 151.046 247.046 160 236 160H226C221.582 160 218 156.418 218 152V52Z" fill="#FF2A1E"/>
    <path d="M262 60C262 55.5817 265.582 52 270 52H278C288.493 52 297 60.5066 297 71V135C297 145.493 288.493 154 278 154H270C265.582 154 262 150.418 262 146V60Z" fill="#FF2A1E"/>
    <path d="M303 69C303 64.5817 306.582 61 311 61H318C327.389 61 335 68.6112 335 78V129C335 138.389 327.389 146 318 146H311C306.582 146 303 142.418 303 138V69Z" fill="#FF2A1E"/>
  </g>
  <text x="190" y="123" fill="#101114" font-family="Trebuchet MS, Segoe UI, sans-serif" font-size="46" font-weight="800" letter-spacing="1.2">
    EL BOTI CLIM
  </text>
</svg>
